<svg xmlns="http://www.w3.org/2000/svg" viewBox="0 0 650 350" width="650" height="350">
  <g transform="translate(40, 40)">
    <path fill="#1E1E1C" d="M 98,70 L 60,108 L 60,250 L 175,250 C 190,250 195,235 195,210 L 195,110 C 195,85 190,70 175,70 Z M 110,120 L 145,120 C 148,120 148,125 148,140 L 148,180 C 148,195 148,200 145,200 L 110,200 Z" />
    <path fill="#1E1E1C" d="M 215,70 L 325,70 L 325,120 L 270,120 C 265,120 265,125 265,135 L 265,142 C 265,152 270,158 280,158 L 325,158 L 325,250 L 215,250 L 215,200 L 270,200 C 275,200 275,195 275,185 L 275,178 C 275,168 270,162 260,162 L 215,162 Z" />
    <path fill="#1E1E1C" d="M 382,70 L 345,107 L 345,250 L 395,250 L 395,200 L 430,200 C 465,200 480,185 480,150 L 480,120 C 480,85 465,70 430,70 Z M 395,120 L 430,120 C 433,120 433,125 433,135 L 433,150 C 433,160 433,165 430,165 L 395,165 Z" />
    <path fill="#1E1E1C" d="M 500,135 L 550,135 L 550,250 L 500,250 Z" />
    <polygon fill="#E13A3E" points="500,70 550,70 550,120" />
    <rect fill="#E13A3E" x="60" y="275" width="490" height="10" rx="2" />
  </g>
</svg>
